<svg xmlns="http://www.w3.org/2000/svg" viewBox="0 0 64 64"><g id="Layer_70" data-name="Layer 70"><path d="M52.26,13.52l-17-3A1.51,1.51,0,0,0,33.5,12v1.68L23.86,16a1.51,1.51,0,0,0-1.15,1.46v4.1a1.5,1.5,0,0,0,3,0V18.62l7.79-1.86V47.38l-7.79-1.86V43a1.5,1.5,0,0,0-3,0V46.7a1.51,1.51,0,0,0,1.15,1.46l9.64,2.3V52a1.52,1.52,0,0,0,1.76,1.48l17-3A1.5,1.5,0,0,0,53.5,49V15A1.5,1.5,0,0,0,52.26,13.52Z"/><path d="M29.06,32a1.5,1.5,0,0,0-1.5-1.5H19.48V26A1.5,1.5,0,0,0,16.92,25l-6,6a1.53,1.53,0,0,0,0,2.12l6,6A1.5,1.5,0,0,0,19.48,38V33.5h8.08A1.5,1.5,0,0,0,29.06,32Z"/></g></svg>